<?xml version="1.0" encoding="UTF-8"?>
<!DOCTYPE svg PUBLIC "-//W3C//DTD SVG 1.1//EN" "http://www.w3.org/Graphics/SVG/1.1/DTD/svg11.dtd">
<!-- Creator: CorelDRAW 2020 (64-Bit) -->
<svg xmlns="http://www.w3.org/2000/svg" xml:space="preserve" width="36px" height="36px" version="1.1" style="shape-rendering:geometricPrecision; text-rendering:geometricPrecision; image-rendering:optimizeQuality; fill-rule:evenodd; clip-rule:evenodd"
viewBox="0 0 36 36"
 xmlns:xlink="http://www.w3.org/1999/xlink"
 xmlns:xodm="http://www.corel.com/coreldraw/odm/2003">
 <defs>
  <style type="text/css">
   <![CDATA[
    .fil0 {fill:none}
    .fil1 {fill:#A46C2D;fill-rule:nonzero}
   ]]>
  </style>
 </defs>
 <g id="Слой_x0020_1">
  <metadata id="CorelCorpID_0Corel-Layer"/>
  <rect class="fil0" width="36" height="36"/>
  <g>
   <path class="fil1" d="M21.26 7.5l7.24 7.24 0 13.76 -21 0 0 -21 13.76 0 0 0 0 0zm0 -3l-13.76 0c-1.65,0 -3,1.35 -3,3l0 21c0,1.65 1.35,3 3,3l21 0c1.65,0 3,-1.35 3,-3l0 -13.76c0,-0.79 -0.32,-1.56 -0.89,-2.11l-7.24 -7.24c-0.55,-0.57 -1.32,-0.89 -2.11,-0.89l0 0zm-10.76 18l15 0 0 3 -15 0 0 -3zm0 -6l15 0 0 3 -15 0 0 -3zm0 -6l10.5 0 0 3 -10.5 0 0 -3z"/>
  </g>
 </g>
</svg>
