<?xml version="1.0" encoding="UTF-8"?>
<!DOCTYPE svg PUBLIC "-//W3C//DTD SVG 1.1//EN" "http://www.w3.org/Graphics/SVG/1.1/DTD/svg11.dtd">
<!-- Creator: CorelDRAW 2020 (64-Bit) -->
<svg xmlns="http://www.w3.org/2000/svg" xml:space="preserve" width="481px" height="129px" version="1.1" style="shape-rendering:geometricPrecision; text-rendering:geometricPrecision; image-rendering:optimizeQuality; fill-rule:evenodd; clip-rule:evenodd"
viewBox="0 0 481 129"
 xmlns:xlink="http://www.w3.org/1999/xlink"
 xmlns:xodm="http://www.corel.com/coreldraw/odm/2003">
 <defs>
  <style type="text/css">
   <![CDATA[
    .fil0 {fill:#DECC9E}
   ]]>
  </style>
 </defs>
 <g id="Слой_x0020_1">
  <metadata id="CorelCorpID_0Corel-Layer"/>
  <path class="fil0" d="M190.57 42.94l0 -0.84c-1.55,-0.11 -1.69,-0.33 -1.69,-1.72l0 -6.97c0,-1.36 0.11,-1.63 1.64,-1.69l0 -0.84 -6.05 0 0 0.84c1.01,0.06 1.14,0.33 1.14,1.61l0 7.7c0,0.71 -0.02,0.85 -0.68,0.85l-1.74 0c-0.66,0 -0.71,-0.14 -0.71,-0.85l0 -7.75c0,-1.26 0.19,-1.5 1.12,-1.56l0 -0.84 -5.62 0 0 0.84c1.06,0.06 1.2,0.27 1.2,1.56l0 7.75c0,0.71 -0.03,0.85 -0.68,0.85l-1.91 0c-0.52,0 -0.54,-0.14 -0.54,-0.85l0 -7.7c0,-1.31 0.19,-1.53 0.9,-1.61l0 -0.84 -5.81 0 0 0.84c1.47,0.08 1.64,0.33 1.64,1.69l0 6.97c0,1.42 -0.19,1.61 -1.69,1.72l0 0.84 19.48 0zm-94.83 58.87c-4.57,-1.2 -9.86,-2.09 -15.52,-2.67 -6.65,0.29 -9.61,3.35 -9.19,6.47 0.49,3.57 4.56,5.2 8.23,1.41 -2.62,7.88 -12.2,6.74 -13.11,0 -0.58,-4.26 3.73,-7.31 8.68,-8.33 -1.9,-0.13 -3.83,-0.21 -5.78,-0.27 -0.09,0 -0.18,0 -0.28,0l0.02 -0.01c-3.26,-0.09 -6.54,-0.09 -9.81,0l0.04 0.01c-0.1,0 -0.2,0 -0.3,0 -1.95,0.06 -3.87,0.14 -5.78,0.27 4.96,1.02 9.27,4.07 8.7,8.33 -0.92,6.74 -10.49,7.88 -13.12,0 3.66,3.79 7.73,2.16 8.22,-1.41 0.43,-3.12 -2.52,-6.18 -9.18,-6.47 -5.65,0.58 -10.94,1.47 -15.51,2.67 -1.06,0.37 -2.02,0.77 -2.89,1.19 -5.81,2.88 -7.37,6.97 -7.51,9.67 -0.29,5.4 2.25,7.69 5.74,10.11 5.07,3.52 14.83,1.45 15.73,-7.88 -1.87,-5.57 -7.86,-1.42 -3.13,2.57 -1.25,-3.63 2.48,-3.88 3.13,-2.57 5.25,13.13 -8.4,18.32 -17.15,11.77 -5.77,-4.35 -8.27,-13.09 -4.16,-19.5 -6.4,4.1 -15.14,1.6 -19.48,-4.19 -6.55,-8.76 -1.37,-22.43 11.75,-17.17 5.55,1.87 1.41,7.88 -2.58,3.13 3.63,1.25 3.89,-2.48 2.58,-3.13 -9.32,0.89 -11.39,10.67 -7.87,15.76 2.42,3.49 4.69,6.03 10.1,5.74 2.7,-0.14 6.77,-1.71 9.64,-7.52 0.43,-0.87 0.83,-1.84 1.2,-2.88 1.2,-4.58 2.08,-9.88 2.66,-15.54 -0.3,-6.67 -3.35,-9.63 -6.46,-9.21 -3.57,0.49 -5.18,4.56 -1.4,8.23 -7.87,-2.62 -6.74,-12.21 0,-13.13 4.24,-0.57 7.29,3.74 8.3,8.7 0.13,-1.9 0.22,-3.83 0.28,-5.78l0 -0.29 0.01 0.02c0.09,-3.26 0.09,-6.55 0,-9.83l-0.01 0.05c0,-0.11 0,-0.22 0,-0.32 -0.06,-1.95 -0.15,-3.86 -0.28,-5.77 -1.01,4.97 -4.06,9.28 -8.3,8.71 -6.74,-0.92 -7.87,-10.51 0,-13.14 -3.78,3.67 -2.17,7.74 1.4,8.23 3.11,0.43 6.16,-2.53 6.46,-9.2 -0.58,-5.65 -1.46,-10.96 -2.66,-15.53 -0.37,-1.07 -0.77,-2.03 -1.2,-2.9 -2.87,-5.82 -6.94,-7.38 -9.64,-7.52 -5.41,-0.29 -7.68,2.25 -10.1,5.75 -3.52,5.08 -1.45,14.86 7.87,15.76 5.55,-1.87 1.41,-7.88 -2.58,-3.14 3.63,-1.25 3.89,2.48 2.58,3.14 -13.12,5.25 -18.3,-8.42 -11.75,-17.18 4.34,-5.79 13.08,-8.29 19.48,-4.17 -4.11,-6.41 -1.61,-15.16 4.16,-19.51 8.75,-6.57 22.4,-1.37 17.15,11.77 -1.87,5.56 -7.86,1.41 -3.13,-2.58 -1.25,3.63 2.48,3.88 3.13,2.58 -0.9,-9.34 -10.66,-11.41 -15.73,-7.88 -3.49,2.41 -6.03,4.69 -5.74,10.11 0.14,2.7 1.7,6.78 7.51,9.66 0.87,0.43 1.83,0.83 2.89,1.2 4.57,1.2 9.86,2.08 15.51,2.66 6.66,-0.29 9.61,-3.35 9.18,-6.47 -0.49,-3.57 -4.56,-5.19 -8.22,-1.4 2.63,-7.88 12.2,-6.75 13.12,0 0.57,4.24 -3.74,7.31 -8.7,8.32 1.91,0.13 3.83,0.22 5.78,0.28l0.3 0 -0.04 0c3.27,0.1 6.55,0.1 9.81,0l-0.02 0c0.1,0 0.2,0 0.29,0 1.95,-0.06 3.87,-0.15 5.77,-0.28 -4.95,-1.01 -9.26,-4.08 -8.68,-8.32 0.91,-6.75 10.49,-7.88 13.11,0 -3.67,-3.79 -7.74,-2.17 -8.23,1.4 -0.42,3.12 2.54,6.18 9.19,6.47 5.66,-0.58 10.95,-1.46 15.52,-2.66 1.04,-0.37 2,-0.77 2.88,-1.2 5.8,-2.88 7.36,-6.96 7.5,-9.66 0.29,-5.42 -2.24,-7.7 -5.72,-10.11 -5.09,-3.53 -14.85,-1.46 -15.74,7.88 1.86,5.56 7.87,1.41 3.12,-2.58 1.25,3.63 -2.47,3.88 -3.12,2.58 -5.25,-13.14 8.39,-18.34 17.14,-11.77 5.78,4.35 8.28,13.1 4.18,19.51 6.4,-4.12 15.13,-1.62 19.46,4.17 6.55,8.76 1.36,22.43 -11.73,17.18 -5.57,-1.87 -1.43,-7.88 2.56,-3.14 -3.63,-1.25 -3.88,2.48 -2.56,3.14 9.3,-0.9 11.37,-10.68 7.85,-15.76 -2.41,-3.5 -4.69,-6.04 -10.09,-5.75 -2.69,0.14 -6.77,1.7 -9.65,7.52 -0.42,0.87 -0.82,1.84 -1.19,2.9 -1.19,4.57 -2.08,9.88 -2.67,15.53 0.3,6.67 3.34,9.63 6.46,9.2 3.57,-0.49 5.19,-4.56 1.41,-8.23 7.88,2.63 6.73,12.22 0,13.14 -4.25,0.57 -7.3,-3.74 -8.31,-8.71 -0.13,1.91 -0.22,3.84 -0.28,5.79 0,0.09 0,0.19 0,0.3l-0.01 -0.05c-0.09,3.28 -0.09,6.57 0,9.83l0.01 -0.02c0,0.1 0,0.19 0,0.29 0.06,1.95 0.15,3.88 0.28,5.78 1.01,-4.96 4.06,-9.27 8.31,-8.7 6.73,0.92 7.88,10.51 0,13.13 3.78,-3.67 2.16,-7.74 -1.41,-8.23 -3.11,-0.42 -6.16,2.54 -6.46,9.21 0.59,5.66 1.48,10.96 2.67,15.54 0.37,1.04 0.77,2.01 1.19,2.88 2.88,5.81 6.96,7.38 9.65,7.52 5.4,0.29 7.68,-2.25 10.09,-5.74 3.52,-5.09 1.45,-14.87 -7.85,-15.76 -5.57,1.87 -1.43,7.88 2.56,3.13 -3.63,1.25 -3.88,-2.48 -2.56,-3.13 13.09,-5.26 18.28,8.41 11.73,17.17 -4.33,5.79 -13.06,8.29 -19.46,4.19 4.1,6.41 1.6,15.15 -4.18,19.5 -8.75,6.55 -22.39,1.36 -17.14,-11.77 1.86,-5.57 7.87,-1.42 3.12,2.57 1.25,-3.63 -2.47,-3.88 -3.12,-2.57 0.89,9.33 10.65,11.4 15.74,7.88 3.48,-2.42 6.01,-4.71 5.72,-10.11 -0.14,-2.7 -1.7,-6.79 -7.5,-9.67 -0.88,-0.42 -1.84,-0.82 -2.88,-1.19zm2.24 -2.66c-18.36,-5.26 -49.83,-5.26 -68.18,0 5.25,-18.38 5.25,-49.92 0,-68.3 18.35,5.26 49.82,5.26 68.18,0 -5.25,18.38 -5.25,49.92 0,68.3zm-2.93 -2.93c-0.98,-4.17 -1.63,-8.45 -2.1,-12.68 -0.7,-6.13 -1,-12.36 -1,-18.54 0,-6.18 0.3,-12.39 1,-18.54 0.47,-4.22 1.12,-8.51 2.1,-12.68 -4.16,0.98 -8.43,1.63 -12.65,2.11 -6.13,0.7 -12.35,1 -18.51,1 -6.17,0 -12.38,-0.3 -18.51,-1 -4.21,-0.48 -8.5,-1.13 -12.66,-2.11 0.97,4.17 1.63,8.46 2.11,12.68 0.7,6.15 0.99,12.36 0.99,18.54 0,6.18 -0.29,12.41 -0.99,18.54 -0.48,4.23 -1.14,8.51 -2.11,12.68 4.16,-0.98 8.45,-1.63 12.66,-2.11 6.13,-0.69 12.34,-1 18.51,-1 6.16,0 12.38,0.31 18.51,1 4.22,0.48 8.49,1.13 12.65,2.11zm-50.13 -18.2l0 -2.1c3.29,-0.24 3.61,-0.48 3.61,-3.85l0 -15c0,-3.33 -0.32,-3.53 -3.32,-3.78l0 -1.31 10.68 0 0 1.31c-2.49,0.29 -2.76,0.45 -2.76,3.78l0 16.07c0,1.96 0.16,2.12 1.88,2.12l4 0c1.84,0 1.96,-0.04 1.96,-2.12l0 -16.07c0,-3.29 -0.24,-3.49 -2.56,-3.78l0 -1.31 9.72 0 0 1.31c-2.17,0.29 -2.52,0.49 -2.52,3.78l0 16.07c0,2.04 0.11,2.12 1.92,2.12l3.99 0c1.81,0 1.93,-0.04 1.93,-2.12l0 -16.07c0,-3.37 -0.32,-3.53 -2.6,-3.78l0 -1.31 10.48 0 0 1.31c-2.92,0.25 -3.28,0.45 -3.28,3.9l0 14.76c0,3.49 0.36,3.73 3.44,3.97l0 2.1 -36.57 0zm341.61 16.07l-0.25 -0.85c-0.21,0.08 -0.49,0.16 -0.84,0.16 -0.46,0 -0.85,-0.38 -0.85,-1.58l0 -4.89c0,-1.28 -0.24,-2.37 -1.17,-3.16 -0.71,-0.58 -1.55,-0.93 -2.64,-0.93 -1.61,0.24 -3.3,1.2 -4.36,1.94 -0.6,0.43 -0.9,0.82 -0.9,1.25 0,0.77 1.01,1.31 1.71,1.31 0.5,0 0.82,-0.22 0.99,-0.87 0.19,-0.87 0.41,-1.48 0.68,-1.83 0.3,-0.38 0.57,-0.52 0.98,-0.52 0.76,0 1.47,0.82 1.47,2.4l0 1.12c-0.63,0.58 -2.83,1.31 -4.09,1.81 -1.33,0.51 -1.93,1.31 -1.93,2.7 0,1.61 1.31,3.42 3.49,3.42 0.65,0 1.85,-0.91 2.69,-1.51 0.11,0.27 0.28,0.6 0.63,0.93 0.33,0.33 0.87,0.58 1.53,0.58l2.86 -1.48zm-5.18 -0.99c-0.3,0.28 -0.57,0.39 -0.95,0.39 -0.71,0 -1.64,-0.71 -1.64,-2.05 0,-0.93 0.38,-1.37 1.15,-1.83 0.49,-0.3 0.95,-0.6 1.44,-0.87l0 4.36zm-11.2 -4.56c1.36,-0.27 2.89,-1.03 2.89,-2.67 0,-1.99 -1.67,-2.7 -3.93,-2.7l-7.06 0 0 0.79c1.39,0.08 1.56,0.38 1.56,1.88l0 6.47c0,1.72 -0.14,1.91 -1.75,2.08l0 0.84 5.78 0c3.41,0 6.11,-0.98 6.11,-3.71 0,-1.88 -1.48,-2.68 -3.6,-2.92l0 -0.06zm-3.3 -0.24l0 -3.33c0,-0.69 0.14,-0.85 0.82,-0.85 1.25,0 1.96,0.6 1.96,2.13 0,1.39 -0.71,2.05 -2.29,2.05l-0.49 0zm0 0.95l0.65 0c1.83,0 2.7,0.74 2.7,2.38 0,1.83 -1.17,2.65 -2.18,2.65 -0.79,0 -1.17,-0.22 -1.17,-1.7l0 -3.33zm-12.07 -6.41c-2.76,0 -5.97,2.13 -5.97,6.63 0,2.95 1.93,6.1 5.89,6.1 2.99,0 5.8,-2.19 5.8,-6.62 0,-3.25 -2.18,-6.11 -5.7,-6.11l-0.02 0zm-0.33 1.04c1.5,0 2.37,2.21 2.37,5.87 0,4.01 -0.95,4.77 -1.88,4.77 -1.55,0 -2.42,-2.59 -2.42,-6 0,-3.17 0.89,-4.64 1.9,-4.64l0.03 0zm-7.14 11.35l0 -0.84c-1.44,-0.17 -1.55,-0.33 -1.55,-1.7l0 -6.99c0,-1.39 0.13,-1.52 1.55,-1.69l0 -0.84 -13.11 0 0 0.84c1.47,0.17 1.61,0.27 1.61,1.69l0 7.02c0,1.34 -0.14,1.5 -1.64,1.67l0 0.84 6.03 0 0 -0.84c-0.98,-0.14 -1.07,-0.33 -1.07,-1.7l0 -7.64c0,-0.74 0,-0.85 0.66,-0.85l1.96 0c0.63,0 0.65,0.11 0.65,0.85l0 7.64c0,1.4 -0.08,1.59 -1.11,1.7l0 0.84 6.02 0zm-13.76 -1.14l-0.25 -0.85c-0.22,0.08 -0.49,0.16 -0.84,0.16 -0.47,0 -0.85,-0.38 -0.85,-1.58l0 -4.89c0,-1.28 -0.24,-2.37 -1.17,-3.16 -0.71,-0.58 -1.55,-0.93 -2.64,-0.93 -1.61,0.24 -3.3,1.2 -4.36,1.94 -0.6,0.43 -0.9,0.82 -0.9,1.25 0,0.77 1,1.31 1.71,1.31 0.49,0 0.82,-0.22 0.98,-0.87 0.2,-0.87 0.41,-1.48 0.69,-1.83 0.3,-0.38 0.57,-0.52 0.98,-0.52 0.76,0 1.47,0.82 1.47,2.4l0 1.12c-0.63,0.58 -2.84,1.31 -4.09,1.81 -1.34,0.51 -1.93,1.31 -1.93,2.7 0,1.61 1.3,3.42 3.48,3.42 0.66,0 1.86,-0.91 2.7,-1.51 0.11,0.27 0.28,0.6 0.63,0.93 0.33,0.33 0.87,0.58 1.52,0.58l2.87 -1.48zm-5.18 -0.99c-0.3,0.28 -0.57,0.39 -0.96,0.39 -0.7,0 -1.63,-0.71 -1.63,-2.05 0,-0.93 0.38,-1.37 1.14,-1.83 0.49,-0.3 0.96,-0.6 1.45,-0.87l0 4.36zm-15.29 -8.62l0 -1.91c-1.64,0.51 -3.27,1 -4.82,1.28l0 0.76c1.36,0.19 1.49,0.3 1.49,1.91l0 11.91c0,1.64 -0.13,1.8 -1.71,1.94l0 0.85 7.11 0 0 -0.85c-1.91,-0.16 -2.07,-0.3 -2.07,-1.97l0 -3.17c0.35,0.17 0.84,0.34 1.55,0.34 3.33,-0.8 6.11,-3.39 6.11,-7.46 0,-2.6 -1.56,-5.27 -4.55,-5.27 -0.44,0 -0.82,0.13 -1.23,0.41l-1.88 1.23zm0 0.95c0.38,-0.33 0.9,-0.57 1.5,-0.57 1.28,0 2.78,1.31 2.78,4.56 0,3.38 -1.15,4.89 -2.32,4.89 -0.68,0 -1.47,-0.52 -1.96,-1.1l0 -7.78zm-5.29 8.66l-0.24 -0.85c-0.22,0.08 -0.49,0.16 -0.85,0.16 -0.46,0 -0.84,-0.38 -0.84,-1.58l0 -4.89c0,-1.28 -0.25,-2.37 -1.18,-3.16 -0.7,-0.58 -1.55,-0.93 -2.64,-0.93 -1.61,0.24 -3.3,1.2 -4.36,1.94 -0.6,0.43 -0.9,0.82 -0.9,1.25 0,0.77 1.01,1.31 1.72,1.31 0.49,0 0.82,-0.22 0.98,-0.87 0.19,-0.87 0.41,-1.48 0.68,-1.83 0.3,-0.38 0.57,-0.52 0.98,-0.52 0.76,0 1.47,0.82 1.47,2.4l0 1.12c-0.62,0.58 -2.83,1.31 -4.08,1.81 -1.34,0.51 -1.94,1.31 -1.94,2.7 0,1.61 1.31,3.42 3.49,3.42 0.65,0 1.85,-0.91 2.7,-1.51 0.11,0.27 0.27,0.6 0.62,0.93 0.33,0.33 0.88,0.58 1.53,0.58l2.86 -1.48zm-5.18 -0.99c-0.3,0.28 -0.57,0.39 -0.95,0.39 -0.71,0 -1.64,-0.71 -1.64,-2.05 0,-0.93 0.39,-1.37 1.15,-1.83 0.49,-0.3 0.95,-0.6 1.44,-0.87l0 4.36zm-7.66 2.13l0 -0.9c-1.93,-0.16 -2.12,-0.38 -2.12,-2.62l0 -10.51c0,-2.21 0.19,-2.43 1.99,-2.59l0 -0.91 -6.98 0 0 0.91c1.34,0.16 1.53,0.38 1.53,2.59l0 11.9c0,0.96 -0.08,1.01 -0.96,1.01l-2.48 0c-0.95,0 -1,-0.02 -1,-1.01l0 -11.9c0,-2.21 0.21,-2.43 1.52,-2.59l0 -0.91 -6.46 0 0 0.91c1.28,0.16 1.47,0.38 1.47,2.59l0 11.9c0,0.96 -0.05,1.01 -0.98,1.01l-2.45 0c-0.95,0 -1.01,-0.02 -1.01,-1.01l0 -11.9c0,-2.27 0.19,-2.43 1.5,-2.59l0 -0.91 -6.92 0 0 0.91c1.77,0.16 1.96,0.32 1.96,2.65l0 10.51c0,2.21 -0.19,2.4 -2.07,2.56l0 0.9 23.46 0zm-29.65 -1.14l-0.24 -0.85c-0.22,0.08 -0.49,0.16 -0.85,0.16 -0.46,0 -0.84,-0.38 -0.84,-1.58l0 -4.89c0,-1.28 -0.25,-2.37 -1.17,-3.16 -0.71,-0.58 -1.56,-0.93 -2.65,-0.93 -1.61,0.24 -3.3,1.2 -4.36,1.94 -0.6,0.43 -0.9,0.82 -0.9,1.25 0,0.77 1.01,1.31 1.72,1.31 0.49,0 0.82,-0.22 0.98,-0.87 0.19,-0.87 0.41,-1.48 0.68,-1.83 0.3,-0.38 0.57,-0.52 0.98,-0.52 0.77,0 1.48,0.82 1.48,2.4l0 1.12c-0.63,0.58 -2.84,1.31 -4.09,1.81 -1.34,0.51 -1.94,1.31 -1.94,2.7 0,1.61 1.31,3.42 3.49,3.42 0.65,0 1.85,-0.91 2.7,-1.51 0.11,0.27 0.27,0.6 0.63,0.93 0.32,0.33 0.87,0.58 1.52,0.58l2.86 -1.48zm-5.17 -0.99c-0.3,0.28 -0.58,0.39 -0.96,0.39 -0.71,0 -1.63,-0.71 -1.63,-2.05 0,-0.93 0.38,-1.37 1.14,-1.83 0.49,-0.3 0.95,-0.6 1.45,-0.87l0 4.36zm-15.3 -8.62l0 -1.91c-1.63,0.51 -3.27,1 -4.82,1.28l0 0.76c1.36,0.19 1.5,0.3 1.5,1.91l0 11.91c0,1.64 -0.14,1.8 -1.72,1.94l0 0.85 7.12 0 0 -0.85c-1.91,-0.16 -2.08,-0.3 -2.08,-1.97l0 -3.17c0.36,0.17 0.85,0.34 1.56,0.34 3.32,-0.8 6.1,-3.39 6.1,-7.46 0,-2.6 -1.55,-5.27 -4.55,-5.27 -0.43,0 -0.82,0.13 -1.22,0.41l-1.89 1.23zm0 0.95c0.39,-0.33 0.9,-0.57 1.5,-0.57 1.28,0 2.78,1.31 2.78,4.56 0,3.38 -1.14,4.89 -2.31,4.89 -0.68,0 -1.47,-0.52 -1.97,-1.1l0 -7.78zm-11.85 -2.59c-2.75,0 -5.97,2.13 -5.97,6.63 0,2.95 1.94,6.1 5.89,6.1 3,0 5.8,-2.19 5.8,-6.62 0,-3.25 -2.18,-6.11 -5.69,-6.11l-0.03 0zm-0.33 1.04c1.5,0 2.37,2.21 2.37,5.87 0,4.01 -0.95,4.77 -1.88,4.77 -1.55,0 -2.42,-2.59 -2.42,-6 0,-3.17 0.9,-4.64 1.91,-4.64l0.02 0zm-6.95 2.78c-0.08,-1.15 -0.08,-3.03 -0.11,-3.49l-10.3 0c-0.03,0.46 -0.05,2.29 -0.16,3.52l0.87 0.08c0.16,-0.68 0.3,-1.17 0.49,-1.69 0.27,-0.69 0.63,-0.88 1.39,-0.88l0.87 0 0 8.36c0,1.5 -0.11,1.66 -1.63,1.83l0 0.84 6.87 0 0 -0.84c-1.78,-0.17 -1.91,-0.36 -1.91,-1.83l0 -8.36 0.87 0c0.74,0 1.06,0.25 1.34,0.77 0.21,0.49 0.38,1.03 0.57,1.77l0.84 -0.08zm-11.25 8.57l0 -0.84c-0.98,-0.06 -1.34,-0.55 -1.97,-1.83 -0.84,-1.75 -1.17,-2.46 -1.58,-3.01 -0.6,-0.84 -1.41,-1.17 -2.01,-1.33l0 -0.14c0.41,-0.36 0.82,-0.93 1.2,-1.5 0.71,-1.12 1.28,-1.7 2.18,-1.7l0.51 0c0.66,0 1.01,-0.4 1.01,-0.92 0,-0.63 -0.51,-1.09 -1.36,-1.09 -1.2,0 -1.93,0.92 -2.48,1.85 -0.44,0.74 -1.2,2.08 -1.64,2.6 -0.59,0.65 -1.06,0.9 -1.63,0.92l0 -2.48c0,-1.42 0.14,-1.58 1.53,-1.75l0 -0.84 -6.38 0 0 0.84c1.47,0.17 1.61,0.3 1.61,1.75l0 6.82c0,1.45 -0.14,1.64 -1.69,1.81l0 0.84 6.56 0 0 -0.84c-1.49,-0.17 -1.63,-0.36 -1.63,-1.81l0 -3.41c0.57,-0.05 0.95,0.36 1.36,1.34 0.33,0.82 0.74,2.07 1.23,3.11 0.74,1.53 1.69,1.61 2.86,1.61l2.32 0zm-14.04 -12.06l-5.1 0 0 0.3c0,0.16 -0.05,0.3 -0.16,0.6l-3.24 8.79 -0.08 0c0.13,-2.43 0.13,-3.52 0.13,-4.42l0 -2.65c0,-1.51 0.17,-1.67 1.34,-1.83l0 -0.79 -6.11 0 0 0.79c1.5,0.16 1.61,0.32 1.61,1.85l0 6.8c0,1.42 -0.11,1.61 -1.61,1.78l0 0.84 5.15 0 0 -0.19c0,-0.33 0.06,-0.63 0.17,-0.9l3.27 -8.79 0.05 0c-0.13,2.4 -0.13,3.25 -0.13,3.85l0 3.44c0,1.36 -0.14,1.58 -1.31,1.75l0 0.84 6.08 0 0 -0.84c-1.53,-0.17 -1.61,-0.39 -1.61,-1.78l0 -6.91c0,-1.36 0.08,-1.61 1.55,-1.77l0 -0.76zm-19.78 2.48c1.85,-0.35 3.89,-1.5 3.89,-3.99 0,-1.31 -0.6,-2.37 -1.5,-3 -1.01,-0.68 -2.26,-0.96 -4.28,-0.96l-7.3 0 0 0.91c1.85,0.16 2.02,0.41 2.02,2.62l0 10.45c0,2.24 -0.19,2.49 -2.16,2.65l0 0.9 6.33 0c2.1,0 4.09,-0.35 5.45,-1.17 1.39,-0.82 2.37,-2.16 2.37,-4.07 0,-2.51 -1.99,-3.85 -4.82,-4.23l0 -0.11zm-3.77 -0.22l0 -5.13c0,-0.68 0.09,-1.09 0.28,-1.26 0.16,-0.16 0.46,-0.3 1.03,-0.3 1.34,0 2.7,0.93 2.7,3.39 0,2.29 -1.01,3.3 -3.38,3.3l-0.63 0zm0 1.04l0.55 0c2.72,0 4.2,1.25 4.2,3.77 0,2.78 -1.58,3.87 -3,3.9 -1.31,0 -1.75,-0.57 -1.75,-2.46l0 -5.21zm303.64 -18.53l-0.24 -0.85c-0.22,0.09 -0.49,0.17 -0.85,0.17 -0.46,0 -0.84,-0.38 -0.84,-1.58l0 -4.89c0,-1.28 -0.25,-2.38 -1.17,-3.17 -0.71,-0.57 -1.56,-0.93 -2.65,-0.93 -1.61,0.25 -3.3,1.2 -4.36,1.94 -0.6,0.44 -0.9,0.82 -0.9,1.26 0,0.76 1.01,1.31 1.72,1.31 0.49,0 0.82,-0.22 0.98,-0.88 0.19,-0.87 0.41,-1.47 0.68,-1.82 0.3,-0.39 0.57,-0.52 0.98,-0.52 0.76,0 1.47,0.82 1.47,2.4l0 1.12c-0.62,0.57 -2.83,1.31 -4.09,1.8 -1.33,0.52 -1.93,1.31 -1.93,2.7 0,1.61 1.31,3.42 3.49,3.42 0.65,0 1.85,-0.91 2.7,-1.51 0.11,0.28 0.27,0.6 0.62,0.93 0.33,0.33 0.88,0.58 1.53,0.58l2.86 -1.48zm-5.18 -0.98c-0.3,0.27 -0.57,0.38 -0.95,0.38 -0.71,0 -1.64,-0.71 -1.64,-2.05 0,-0.92 0.39,-1.36 1.15,-1.83 0.49,-0.3 0.95,-0.6 1.44,-0.87l0 4.37zm-11.2 -4.56c1.37,-0.27 2.89,-1.04 2.89,-2.68 0,-1.99 -1.66,-2.7 -3.92,-2.7l-7.06 0 0 0.79c1.39,0.08 1.55,0.38 1.55,1.89l0 6.47c0,1.72 -0.14,1.91 -1.74,2.07l0 0.85 5.77 0c3.41,0 6.11,-0.98 6.11,-3.71 0,-1.89 -1.47,-2.68 -3.6,-2.93l0 -0.05zm-3.3 -0.25l0 -3.33c0,-0.68 0.14,-0.84 0.82,-0.84 1.25,0 1.96,0.6 1.96,2.13 0,1.39 -0.71,2.04 -2.29,2.04l-0.49 0zm0 0.96l0.66 0c1.82,0 2.7,0.74 2.7,2.38 0,1.82 -1.18,2.64 -2.18,2.64 -0.79,0 -1.18,-0.22 -1.18,-1.69l0 -3.33zm-6.05 -2.59c-0.08,-1.15 -0.08,-3.04 -0.11,-3.5l-10.3 0c-0.02,0.46 -0.05,2.29 -0.16,3.52l0.87 0.08c0.16,-0.68 0.3,-1.17 0.49,-1.69 0.27,-0.68 0.63,-0.87 1.39,-0.87l0.87 0 0 8.35c0,1.5 -0.1,1.67 -1.63,1.83l0 0.85 6.87 0 0 -0.85c-1.77,-0.16 -1.91,-0.35 -1.91,-1.83l0 -8.35 0.87 0c0.74,0 1.06,0.24 1.34,0.76 0.21,0.49 0.38,1.04 0.57,1.78l0.84 -0.08zm-11.69 5.43c-0.93,0.76 -1.63,1.06 -2.7,1.06 -1.14,0 -3.32,-1.09 -3.32,-4.8 0,-2.68 0.9,-4.15 2.07,-4.15 0.74,0 1.47,0.49 2.45,1.47 0.25,0.25 0.41,0.33 0.57,0.33 0.39,0 1.15,-0.65 1.15,-1.53 0.03,-0.33 -0.08,-0.65 -0.52,-0.98 -0.44,-0.36 -1.25,-0.66 -2.15,-0.66l-0.03 0c-1.09,0 -2.64,0.52 -4.11,1.64 -1.75,1.37 -2.7,3.3 -2.7,5.27 0,3 1.96,5.82 5.45,5.82 1.66,0 3.21,-1.18 4.36,-2.82l-0.52 -0.65zm-10.74 0c-0.92,0.76 -1.63,1.06 -2.7,1.06 -1.14,0 -3.32,-1.09 -3.32,-4.8 0,-2.68 0.9,-4.15 2.07,-4.15 0.74,0 1.47,0.49 2.45,1.47 0.25,0.25 0.41,0.33 0.58,0.33 0.38,0 1.14,-0.65 1.14,-1.53 0.03,-0.33 -0.08,-0.65 -0.52,-0.98 -0.43,-0.36 -1.25,-0.66 -2.15,-0.66l-0.03 0c-1.09,0 -2.64,0.52 -4.11,1.64 -1.75,1.37 -2.7,3.3 -2.7,5.27 0,3 1.96,5.82 5.45,5.82 1.66,0 3.22,-1.18 4.36,-2.82l-0.52 -0.65zm-9.73 -8.93l-4.58 0 0 0.82c1.34,0.19 1.53,0.52 1.23,1.5 -0.49,1.8 -1.17,3.99 -1.82,5.95l-1.86 -5.98c-0.3,-1.01 -0.3,-1.31 1.01,-1.47l0 -0.82 -6.35 0 0 0.82c1.12,0.14 1.39,0.46 1.88,1.67 0.55,1.31 1.88,5.02 3.24,9.14 0.17,0.47 0.25,0.85 0.2,1.26 -0.09,0.3 -0.28,0.71 -0.58,1.31 -0.41,0.71 -0.98,1.15 -1.88,1.67 -0.54,0.33 -0.73,0.6 -0.73,1.04 0,0.84 1.09,1.61 1.85,1.61 0.49,0 0.84,-0.19 1.01,-0.82 0.35,-1.31 0.87,-3.06 2.48,-7.46 1.44,-3.85 2.18,-5.87 2.83,-7.43 0.6,-1.5 0.82,-1.77 2.07,-1.99l0 -0.82zm-12.53 12.07l0 -0.85c-0.98,-0.05 -1.34,-0.55 -1.97,-1.83 -0.84,-1.74 -1.17,-2.45 -1.58,-3 -0.6,-0.85 -1.41,-1.18 -2.01,-1.34l0 -0.14c0.41,-0.35 0.81,-0.92 1.2,-1.5 0.71,-1.12 1.28,-1.69 2.18,-1.69l0.51 0c0.66,0 1.01,-0.41 1.01,-0.93 0,-0.63 -0.51,-1.09 -1.36,-1.09 -1.2,0 -1.93,0.93 -2.48,1.86 -0.44,0.73 -1.2,2.07 -1.64,2.59 -0.6,0.66 -1.06,0.9 -1.63,0.93l0 -2.49c0,-1.42 0.14,-1.58 1.52,-1.74l0 -0.85 -6.37 0 0 0.85c1.47,0.16 1.61,0.3 1.61,1.74l0 6.83c0,1.45 -0.14,1.64 -1.69,1.8l0 0.85 6.56 0 0 -0.85c-1.49,-0.16 -1.63,-0.35 -1.63,-1.8l0 -3.41c0.57,-0.06 0.95,0.35 1.36,1.34 0.33,0.81 0.74,2.07 1.23,3.11 0.73,1.53 1.69,1.61 2.86,1.61l2.32 0zm-13.96 -3.14c-0.92,0.76 -1.63,1.06 -2.7,1.06 -1.14,0 -3.32,-1.09 -3.32,-4.8 0,-2.68 0.9,-4.15 2.07,-4.15 0.74,0 1.47,0.49 2.45,1.47 0.25,0.25 0.41,0.33 0.58,0.33 0.38,0 1.14,-0.65 1.14,-1.53 0.03,-0.33 -0.08,-0.65 -0.52,-0.98 -0.43,-0.36 -1.25,-0.66 -2.15,-0.66l-0.03 0c-1.09,0 -2.64,0.52 -4.11,1.64 -1.75,1.37 -2.7,3.3 -2.7,5.27 0,3 1.96,5.82 5.45,5.82 1.66,0 3.22,-1.18 4.36,-2.82l-0.52 -0.65zm-10.82 -8.93l-5.09 0 0 0.3c0,0.16 -0.06,0.3 -0.17,0.6l-3.24 8.79 -0.08 0c0.13,-2.43 0.13,-3.52 0.13,-4.42l0 -2.65c0,-1.5 0.17,-1.66 1.34,-1.83l0 -0.79 -6.11 0 0 0.79c1.5,0.17 1.61,0.33 1.61,1.86l0 6.8c0,1.42 -0.11,1.61 -1.61,1.77l0 0.85 5.16 0 0 -0.19c0,-0.33 0.05,-0.63 0.16,-0.9l3.27 -8.79 0.05 0c-0.13,2.4 -0.13,3.24 -0.13,3.84l0 3.44c0,1.37 -0.14,1.59 -1.31,1.75l0 0.85 6.08 0 0 -0.85c-1.53,-0.16 -1.61,-0.38 -1.61,-1.77l0 -6.91c0,-1.37 0.08,-1.61 1.55,-1.77l0 -0.77zm-25.75 -0.33c-2.75,0 -5.97,2.13 -5.97,6.64 0,2.95 1.93,6.09 5.89,6.09 2.99,0 5.8,-2.19 5.8,-6.61 0,-3.25 -2.18,-6.12 -5.69,-6.12l-0.03 0zm-0.33 1.04c1.5,0 2.37,2.21 2.37,5.87 0,4.01 -0.95,4.78 -1.88,4.78 -1.55,0 -2.42,-2.59 -2.42,-6.01 0,-3.16 0.9,-4.64 1.9,-4.64l0.03 0zm-6.81 3.06c-0.08,-1.45 -0.08,-3.31 -0.08,-3.77l-9.49 0 0 0.85c1.58,0.11 1.69,0.32 1.69,1.72l0 6.85c0,1.36 -0.11,1.64 -1.63,1.8l0 0.85 6.86 0 0 -0.85c-1.77,-0.16 -1.88,-0.44 -1.88,-1.8l0 -7.56c0,-0.74 0,-0.82 0.63,-0.82l0.85 0c0.81,0 1.28,0.22 1.52,0.76 0.25,0.55 0.46,1.29 0.66,2.02l0.87 -0.05zm-16.71 -4.1c-2.75,0 -5.97,2.13 -5.97,6.64 0,2.95 1.94,6.09 5.89,6.09 3,0 5.8,-2.19 5.8,-6.61 0,-3.25 -2.18,-6.12 -5.69,-6.12l-0.03 0zm-0.33 1.04c1.5,0 2.37,2.21 2.37,5.87 0,4.01 -0.95,4.78 -1.88,4.78 -1.55,0 -2.42,-2.59 -2.42,-6.01 0,-3.16 0.9,-4.64 1.91,-4.64l0.02 0zm-6.65 11.36l0 -0.85c-0.98,-0.05 -1.33,-0.55 -1.96,-1.83 -0.84,-1.74 -1.17,-2.45 -1.58,-3 -0.6,-0.85 -1.42,-1.18 -2.02,-1.34l0 -0.14c0.41,-0.35 0.82,-0.92 1.2,-1.5 0.71,-1.12 1.28,-1.69 2.18,-1.69l0.52 0c0.66,0 1.01,-0.41 1.01,-0.93 0,-0.63 -0.52,-1.09 -1.36,-1.09 -1.2,0 -1.94,0.93 -2.48,1.86 -0.44,0.73 -1.2,2.07 -1.64,2.59 -0.6,0.66 -1.06,0.9 -1.63,0.93l0 -2.49c0,-1.42 0.13,-1.58 1.52,-1.74l0 -0.85 -6.38 0 0 0.85c1.48,0.16 1.61,0.3 1.61,1.74l0 6.83c0,1.45 -0.13,1.64 -1.69,1.8l0 0.85 6.57 0 0 -0.85c-1.5,-0.16 -1.63,-0.35 -1.63,-1.8l0 -3.41c0.57,-0.06 0.95,0.35 1.36,1.34 0.33,0.81 0.73,2.07 1.23,3.11 0.73,1.53 1.68,1.61 2.86,1.61l2.31 0zm-13.95 -3.14c-0.93,0.76 -1.64,1.06 -2.7,1.06 -1.14,0 -3.32,-1.09 -3.32,-4.8 0,-2.68 0.9,-4.15 2.07,-4.15 0.73,0 1.47,0.49 2.45,1.47 0.25,0.25 0.41,0.33 0.57,0.33 0.38,0 1.15,-0.65 1.15,-1.53 0.02,-0.33 -0.09,-0.65 -0.52,-0.98 -0.44,-0.36 -1.25,-0.66 -2.15,-0.66l-0.03 0c-1.09,0 -2.64,0.52 -4.12,1.64 -1.74,1.37 -2.69,3.3 -2.69,5.27 0,3 1.96,5.82 5.45,5.82 1.66,0 3.21,-1.18 4.36,-2.82l-0.52 -0.65zm-18.56 -7.62l0 -1.91c-1.64,0.52 -3.27,1.01 -4.82,1.28l0 0.77c1.36,0.19 1.49,0.3 1.49,1.91l0 11.91c0,1.64 -0.13,1.8 -1.71,1.94l0 0.84 7.11 0 0 -0.84c-1.91,-0.17 -2.07,-0.3 -2.07,-1.97l0 -3.17c0.35,0.17 0.84,0.33 1.55,0.33 3.33,-0.8 6.11,-3.39 6.11,-7.46 0,-2.59 -1.56,-5.27 -4.55,-5.27 -0.44,0 -0.82,0.14 -1.23,0.41l-1.88 1.23zm0 0.96c0.38,-0.33 0.9,-0.58 1.5,-0.58 1.28,0 2.78,1.31 2.78,4.56 0,3.39 -1.15,4.89 -2.32,4.89 -0.68,0 -1.47,-0.52 -1.96,-1.09l0 -7.78zm-6.38 6.6c-0.87,0.77 -1.69,1.12 -2.81,1.12 -1.79,0 -3.35,-1.55 -3.43,-4.47 2.51,-0.11 5.72,-0.36 6.11,-0.44 0.62,-0.11 0.73,-0.41 0.73,-1.01 0.03,-2.21 -1.72,-4.4 -4.17,-4.4l-0.03 0c-1.47,0 -2.88,0.82 -3.92,1.91 -0.93,0.96 -1.91,2.71 -1.91,5 0,3.09 1.94,5.82 5.37,5.82 1.12,0 3.08,-0.61 4.55,-2.84l-0.49 -0.69zm-4.03 -8.16c0.95,0 1.5,1.48 1.5,2.84 0,0.49 -0.14,0.63 -0.58,0.63 -1,0.05 -1.93,0.08 -2.99,0.08 0.13,-2.07 1.09,-3.55 2.04,-3.55l0.03 0zm-6.05 11.36l0 -0.85c-1.06,-0.08 -1.69,-0.41 -2.56,-1.99l-2.38 -4.23c0.88,-1.29 1.39,-2.08 2.05,-2.84 0.82,-0.96 1.17,-1.15 2.45,-1.34l0 -0.82 -4.63 0 0 0.82c0.98,0.14 1.2,0.41 0.79,1.12 -0.3,0.57 -0.66,1.28 -1.23,2.13l-1.14 -2.13c-0.38,-0.74 -0.33,-0.96 0.57,-1.12l0 -0.82 -6.02 0 0 0.82c1.25,0.16 1.6,0.49 2.31,1.8l2.21 4.01c-0.79,1.18 -1.5,2.27 -2.1,3.01 -0.82,1.09 -1.41,1.39 -2.7,1.58l0 0.85 4.8 0 0 -0.85c-1.03,-0.16 -1.14,-0.41 -0.74,-1.2 0.41,-0.85 0.85,-1.69 1.34,-2.43l1.23 2.4c0.41,0.82 0.35,1.12 -0.71,1.23l0 0.85 6.46 0zm-12.51 -1.15l-0.25 -0.85c-0.22,0.09 -0.49,0.17 -0.84,0.17 -0.47,0 -0.85,-0.38 -0.85,-1.58l0 -4.89c0,-1.28 -0.24,-2.38 -1.17,-3.17 -0.71,-0.57 -1.55,-0.93 -2.64,-0.93 -1.61,0.25 -3.3,1.2 -4.36,1.94 -0.6,0.44 -0.9,0.82 -0.9,1.26 0,0.76 1.01,1.31 1.71,1.31 0.5,0 0.82,-0.22 0.99,-0.88 0.19,-0.87 0.41,-1.47 0.68,-1.82 0.3,-0.39 0.57,-0.52 0.98,-0.52 0.76,0 1.47,0.82 1.47,2.4l0 1.12c-0.63,0.57 -2.83,1.31 -4.09,1.8 -1.33,0.52 -1.93,1.31 -1.93,2.7 0,1.61 1.3,3.42 3.49,3.42 0.65,0 1.85,-0.91 2.69,-1.51 0.11,0.28 0.28,0.6 0.63,0.93 0.33,0.33 0.87,0.58 1.53,0.58l2.86 -1.48zm-5.18 -0.98c-0.3,0.27 -0.57,0.38 -0.95,0.38 -0.71,0 -1.64,-0.71 -1.64,-2.05 0,-0.92 0.38,-1.36 1.15,-1.83 0.49,-0.3 0.95,-0.6 1.44,-0.87l0 4.37zm-7.5 2.13l0 -0.85c-1.49,-0.11 -1.6,-0.3 -1.6,-1.85l-0.11 -6.59c0,-1.47 0.05,-1.82 1.55,-1.93l0 -0.85 -4.77 0 -2.59 6.7 -2.72 -6.7 -4.66 0 0 0.85c1.63,0.11 1.71,0.65 1.63,2.5l-0.16 3.54c-0.08,1.45 -0.14,2.26 -0.22,3.05 -0.08,0.73 -0.49,1.23 -1.5,1.28l0 0.85 4.61 0 0 -0.85c-1.39,-0.08 -1.66,-0.46 -1.72,-1.28 -0.03,-0.6 -0.08,-1.41 -0.05,-3.13l0.08 -4.08 0.03 0 3.21 9.15 0.82 0 3.41 -9.81 0.05 0 -0.05 7.3c-0.03,1.55 -0.09,1.74 -1.48,1.85l0 0.85 6.24 0zm-15.88 0l0 -0.85c-0.99,-0.05 -1.34,-0.55 -1.97,-1.83 -0.84,-1.74 -1.17,-2.45 -1.58,-3 -0.6,-0.85 -1.41,-1.18 -2.01,-1.34l0 -0.14c0.4,-0.35 0.81,-0.92 1.2,-1.5 0.7,-1.12 1.28,-1.69 2.18,-1.69l0.51 0c0.66,0 1.01,-0.41 1.01,-0.93 0,-0.63 -0.52,-1.09 -1.36,-1.09 -1.2,0 -1.94,0.93 -2.48,1.86 -0.44,0.73 -1.2,2.07 -1.64,2.59 -0.6,0.66 -1.06,0.9 -1.63,0.93l0 -2.49c0,-1.42 0.14,-1.58 1.52,-1.74l0 -0.85 -6.37 0 0 0.85c1.47,0.16 1.6,0.3 1.6,1.74l0 6.83c0,1.45 -0.13,1.64 -1.68,1.8l0 0.85 6.56 0 0 -0.85c-1.49,-0.16 -1.63,-0.35 -1.63,-1.8l0 -3.41c0.57,-0.06 0.95,0.35 1.36,1.34 0.33,0.81 0.74,2.07 1.23,3.11 0.73,1.53 1.69,1.61 2.86,1.61l2.32 0zm-14.04 -12.07l-5.1 0 0 0.3c0,0.16 -0.05,0.3 -0.16,0.6l-3.24 8.79 -0.09 0c0.14,-2.43 0.14,-3.52 0.14,-4.42l0 -2.65c0,-1.5 0.16,-1.66 1.34,-1.83l0 -0.79 -6.11 0 0 0.79c1.5,0.17 1.61,0.33 1.61,1.86l0 6.8c0,1.42 -0.11,1.61 -1.61,1.77l0 0.85 5.15 0 0 -0.19c0,-0.33 0.06,-0.63 0.17,-0.9l3.27 -8.79 0.05 0c-0.13,2.4 -0.13,3.24 -0.13,3.84l0 3.44c0,1.37 -0.14,1.59 -1.31,1.75l0 0.85 6.07 0 0 -0.85c-1.52,-0.16 -1.6,-0.38 -1.6,-1.77l0 -6.91c0,-1.37 0.08,-1.61 1.55,-1.77l0 -0.77zm-22.38 1.31l0 -1.91c-1.63,0.52 -3.27,1.01 -4.82,1.28l0 0.77c1.36,0.19 1.5,0.3 1.5,1.91l0 11.91c0,1.64 -0.14,1.8 -1.72,1.94l0 0.84 7.11 0 0 -0.84c-1.9,-0.17 -2.07,-0.3 -2.07,-1.97l0 -3.17c0.36,0.17 0.85,0.33 1.56,0.33 3.32,-0.8 6.1,-3.39 6.1,-7.46 0,-2.59 -1.55,-5.27 -4.55,-5.27 -0.44,0 -0.82,0.14 -1.23,0.41l-1.88 1.23zm0 0.96c0.39,-0.33 0.9,-0.58 1.5,-0.58 1.28,0 2.78,1.31 2.78,4.56 0,3.39 -1.14,4.89 -2.31,4.89 -0.68,0 -1.47,-0.52 -1.97,-1.09l0 -7.78zm-5.28 8.65l-0.25 -0.85c-0.22,0.09 -0.49,0.17 -0.84,0.17 -0.47,0 -0.85,-0.38 -0.85,-1.58l0 -4.89c0,-1.28 -0.24,-2.38 -1.17,-3.17 -0.71,-0.57 -1.55,-0.93 -2.64,-0.93 -1.61,0.25 -3.3,1.2 -4.36,1.94 -0.6,0.44 -0.9,0.82 -0.9,1.26 0,0.76 1,1.31 1.71,1.31 0.49,0 0.82,-0.22 0.98,-0.88 0.2,-0.87 0.41,-1.47 0.69,-1.82 0.3,-0.39 0.57,-0.52 0.98,-0.52 0.76,0 1.47,0.82 1.47,2.4l0 1.12c-0.63,0.57 -2.84,1.31 -4.09,1.8 -1.34,0.52 -1.93,1.31 -1.93,2.7 0,1.61 1.3,3.42 3.48,3.42 0.66,0 1.86,-0.91 2.7,-1.51 0.11,0.28 0.28,0.6 0.63,0.93 0.33,0.33 0.87,0.58 1.53,0.58l2.86 -1.48zm-5.18 -0.98c-0.3,0.27 -0.57,0.38 -0.95,0.38 -0.71,0 -1.64,-0.71 -1.64,-2.05 0,-0.92 0.38,-1.36 1.15,-1.83 0.49,-0.3 0.95,-0.6 1.44,-0.87l0 4.37zm-7.52 2.13l0 -0.85c-1.45,-0.16 -1.56,-0.33 -1.56,-1.69l0 -6.99c0,-1.39 0.14,-1.53 1.56,-1.69l0 -0.85 -13.11 0 0 0.85c1.47,0.16 1.61,0.27 1.61,1.69l0 7.02c0,1.33 -0.14,1.5 -1.64,1.66l0 0.85 6.02 0 0 -0.85c-0.98,-0.13 -1.06,-0.33 -1.06,-1.69l0 -7.64c0,-0.74 0,-0.85 0.65,-0.85l1.97 0c0.62,0 0.65,0.11 0.65,0.85l0 7.64c0,1.39 -0.08,1.58 -1.12,1.69l0 0.85 6.03 0zm141.55 -26.15l0 -0.84c-1.55,-0.17 -1.63,-0.38 -1.63,-1.78l0 -6.85c0,-1.5 0.08,-1.58 1.66,-1.75l0 -0.84 -6.35 0c-2.7,0 -4.74,0.81 -4.74,3.14 0,1.44 0.87,2.59 3.13,3.05l0 0.06c-1.77,0.54 -2.34,1.53 -2.67,2.37 -0.33,0.85 -0.57,1.48 -0.87,1.97 -0.3,0.49 -0.93,0.57 -1.36,0.63l0 0.84 2.72 0c1.26,0 2.02,-0.27 2.54,-1.85 0.41,-1.18 0.68,-2.08 1.01,-2.68 0.32,-0.52 0.73,-0.68 1.25,-0.68l0.41 0 0 2.59c0,1.45 -0.06,1.61 -1.55,1.78l0 0.84 6.45 0zm-4.9 -6.25l-0.38 0c-0.55,0 -0.96,-0.05 -1.45,-0.35 -0.62,-0.41 -0.98,-1.18 -0.98,-2.11 0,-1.42 0.93,-2.32 1.99,-2.32 0.74,0 0.82,0.17 0.82,0.93l0 3.85zm-8.78 -5.81l-5.09 0 0 0.3c0,0.16 -0.06,0.3 -0.17,0.6l-3.24 8.79 -0.08 0c0.13,-2.43 0.13,-3.52 0.13,-4.42l0 -2.65c0,-1.51 0.17,-1.67 1.34,-1.83l0 -0.79 -6.11 0 0 0.79c1.5,0.16 1.61,0.32 1.61,1.85l0 6.8c0,1.42 -0.11,1.61 -1.61,1.78l0 0.84 5.15 0 0 -0.19c0,-0.33 0.06,-0.63 0.17,-0.9l3.27 -8.79 0.05 0c-0.13,2.4 -0.13,3.25 -0.13,3.85l0 3.44c0,1.37 -0.14,1.58 -1.31,1.75l0 0.84 6.08 0 0 -0.84c-1.53,-0.17 -1.61,-0.38 -1.61,-1.78l0 -6.91c0,-1.36 0.08,-1.61 1.55,-1.77l0 -0.76zm-14.5 0l-10.9 0 0 0.84 0.85 0.11c0.92,0.14 1.06,0.44 1.06,1.26 0,1.47 -0.11,3.68 -0.41,5.4 -0.22,1.23 -0.44,2.19 -0.68,2.9 -0.14,0.35 -0.3,0.49 -0.74,0.49l-0.73 0 0.02 5.11 0.93 0 0.71 -2.7c0.27,-1.07 0.49,-1.35 1.31,-1.35l5.28 0c1.09,0 1.31,0.28 1.5,1.56l0.36 2.49 0.95 0 0.66 -5.11 -1.01 0c-0.71,0 -0.9,-0.11 -0.9,-1.39l0 -7.13c0,-1.28 0.16,-1.53 1.74,-1.64l0 -0.84zm-5.07 9.47c0,1.47 -0.08,1.53 -1.11,1.53l-1.91 0c-0.41,0 -0.46,-0.16 -0.41,-0.47 0.41,-1.63 0.79,-5.43 0.82,-8.57 0,-0.71 0.05,-0.9 0.73,-0.9l0.85 0c0.92,0 1.03,0.03 1.03,0.98l0 7.43zm-6.7 -9.47l-4.58 0 0 0.81c1.34,0.2 1.53,0.52 1.23,1.51 -0.49,1.8 -1.17,3.98 -1.83,5.95l-1.85 -5.98c-0.3,-1.01 -0.3,-1.31 1.01,-1.48l0 -0.81 -6.36 0 0 0.81c1.12,0.14 1.4,0.47 1.89,1.67 0.54,1.31 1.88,5.02 3.24,9.15 0.16,0.47 0.25,0.85 0.19,1.26 -0.08,0.3 -0.27,0.71 -0.57,1.31 -0.41,0.71 -0.98,1.14 -1.88,1.66 -0.55,0.33 -0.74,0.6 -0.74,1.04 0,0.85 1.09,1.61 1.86,1.61 0.49,0 0.84,-0.19 1,-0.82 0.36,-1.31 0.88,-3.05 2.48,-7.46 1.45,-3.84 2.18,-5.87 2.84,-7.42 0.6,-1.5 0.82,-1.78 2.07,-2l0 -0.81zm-12.84 3.49c-0.08,-1.15 -0.08,-3.03 -0.11,-3.49l-10.3 0c-0.02,0.46 -0.05,2.29 -0.16,3.52l0.87 0.08c0.16,-0.68 0.3,-1.17 0.49,-1.69 0.27,-0.69 0.63,-0.88 1.39,-0.88l0.87 0 0 8.36c0,1.5 -0.11,1.66 -1.63,1.83l0 0.84 6.87 0 0 -0.84c-1.77,-0.17 -1.91,-0.36 -1.91,-1.83l0 -8.36 0.87 0c0.74,0 1.06,0.25 1.34,0.77 0.21,0.49 0.38,1.03 0.57,1.77l0.84 -0.08zm-11.69 5.43c-0.93,0.77 -1.63,1.07 -2.7,1.07 -1.14,0 -3.32,-1.09 -3.32,-4.81 0,-2.67 0.9,-4.15 2.07,-4.15 0.74,0 1.47,0.49 2.45,1.48 0.25,0.24 0.41,0.32 0.57,0.32 0.39,0 1.15,-0.65 1.15,-1.52 0.03,-0.33 -0.08,-0.66 -0.52,-0.99 -0.44,-0.35 -1.25,-0.65 -2.15,-0.65l-0.03 0c-1.09,0 -2.64,0.52 -4.12,1.64 -1.74,1.36 -2.69,3.3 -2.69,5.27 0,3 1.96,5.82 5.45,5.82 1.66,0 3.21,-1.18 4.36,-2.82l-0.52 -0.66zm-11.06 -4.17l-6.06 0 -0.38 1.99 6.05 0 0.39 -1.99zm-7.42 6.17l-0.24 -0.85c-0.22,0.08 -0.49,0.16 -0.85,0.16 -0.46,0 -0.84,-0.38 -0.84,-1.58l0 -4.89c0,-1.28 -0.25,-2.37 -1.17,-3.16 -0.71,-0.58 -1.56,-0.93 -2.65,-0.93 -1.61,0.24 -3.3,1.2 -4.36,1.94 -0.6,0.43 -0.9,0.82 -0.9,1.25 0,0.77 1.01,1.31 1.72,1.31 0.49,0 0.82,-0.22 0.98,-0.87 0.19,-0.87 0.41,-1.48 0.68,-1.83 0.3,-0.38 0.57,-0.52 0.98,-0.52 0.77,0 1.47,0.82 1.47,2.4l0 1.12c-0.62,0.58 -2.83,1.31 -4.08,1.81 -1.34,0.51 -1.94,1.31 -1.94,2.7 0,1.61 1.31,3.42 3.49,3.42 0.65,0 1.85,-0.91 2.7,-1.51 0.11,0.27 0.27,0.6 0.63,0.93 0.32,0.33 0.87,0.58 1.52,0.58l2.86 -1.48zm-5.18 -0.99c-0.3,0.28 -0.57,0.39 -0.95,0.39 -0.71,0 -1.64,-0.71 -1.64,-2.05 0,-0.93 0.39,-1.37 1.15,-1.83 0.49,-0.3 0.95,-0.6 1.44,-0.87l0 4.36zm-7.44 -9.93l-10.9 0 0 0.81c1.83,0.2 1.88,0.44 1.88,1.61 0,2.43 -0.49,4.69 -0.9,5.94 -0.46,1.33 -1.19,2.62 -1.9,3.21l0 0.53c0.32,0.13 0.84,0.3 1.28,0.3 0.43,0 0.79,-0.25 1.2,-1.02 0.87,-1.64 1.66,-4.75 1.66,-9.28 0,-0.9 0.11,-1.01 0.82,-1.01l0.98 0c0.81,0 0.9,0.19 0.9,1.14l0 7.05c0,1.53 -0.09,1.77 -1.69,1.94l0 0.84 6.67 0 0 -0.84c-1.49,-0.14 -1.66,-0.41 -1.66,-1.86l0 -6.72c0,-1.5 0.17,-1.66 1.66,-1.83l0 -0.81zm-18.8 -0.33c-2.75,0 -5.97,2.13 -5.97,6.63 0,2.95 1.93,6.1 5.89,6.1 2.99,0 5.8,-2.19 5.8,-6.62 0,-3.25 -2.18,-6.11 -5.69,-6.11l-0.03 0zm-0.33 1.04c1.5,0 2.37,2.21 2.37,5.87 0,4.01 -0.95,4.77 -1.88,4.77 -1.55,0 -2.42,-2.59 -2.42,-6 0,-3.17 0.9,-4.64 1.9,-4.64l0.03 0zm-6.65 11.35l0 -0.84c-0.98,-0.06 -1.33,-0.55 -1.96,-1.83 -0.84,-1.75 -1.17,-2.46 -1.58,-3 -0.6,-0.85 -1.42,-1.18 -2.02,-1.34l0 -0.14c0.41,-0.35 0.82,-0.93 1.2,-1.5 0.71,-1.12 1.28,-1.7 2.18,-1.7l0.52 0c0.65,0 1.01,-0.4 1.01,-0.92 0,-0.63 -0.52,-1.09 -1.36,-1.09 -1.2,0 -1.94,0.92 -2.48,1.85 -0.44,0.74 -1.2,2.08 -1.64,2.6 -0.6,0.65 -1.06,0.9 -1.64,0.92l0 -2.48c0,-1.42 0.14,-1.58 1.53,-1.75l0 -0.84 -6.38 0 0 0.84c1.47,0.17 1.61,0.3 1.61,1.75l0 6.83c0,1.44 -0.14,1.63 -1.69,1.8l0 0.84 6.57 0 0 -0.84c-1.5,-0.17 -1.64,-0.36 -1.64,-1.8l0 -3.42c0.58,-0.05 0.96,0.36 1.37,1.34 0.32,0.82 0.73,2.08 1.22,3.11 0.74,1.53 1.69,1.61 2.86,1.61l2.32 0z"/>
 </g>
</svg>
