<?xml version="1.0" encoding="UTF-8"?>
<!DOCTYPE svg PUBLIC "-//W3C//DTD SVG 1.1//EN" "http://www.w3.org/Graphics/SVG/1.1/DTD/svg11.dtd">
<!-- Creator: CorelDRAW 2020 (64-Bit) -->
<svg xmlns="http://www.w3.org/2000/svg" xml:space="preserve" width="40px" height="40px" version="1.1" style="shape-rendering:geometricPrecision; text-rendering:geometricPrecision; image-rendering:optimizeQuality; fill-rule:evenodd; clip-rule:evenodd"
viewBox="0 0 40 40"
 xmlns:xlink="http://www.w3.org/1999/xlink"
 xmlns:xodm="http://www.corel.com/coreldraw/odm/2003">
 <defs>
  <style type="text/css">
   <![CDATA[
    .fil0 {fill:#A46C2D;fill-rule:nonzero}
   ]]>
  </style>
 </defs>
 <g id="Слой_x0020_1">
  <metadata id="CorelCorpID_0Corel-Layer"/>
  <path class="fil0" d="M36 0l-24 0c-2.2,0 -4,1.8 -4,4l0 24c0,2.2 1.8,4 4,4l24 0c2.2,0 4,-1.8 4,-4l0 -24c0,-2.2 -1.8,-4 -4,-4l0 0zm0 28l-24 0 0 -24 24 0 0 24zm-32 -20l-4 0 0 28c0,2.2 1.8,4 4,4l28 0 0 -4 -28 0 0 -28zm24 12l0 -6c0,-1.1 -0.9,-2 -2,-2l-4 0 0 10 4 0c1.1,0 2,-0.9 2,-2zm-4 -6l2 0 0 6 -2 0 0 -6zm8 4l2 0 0 -2 -2 0 0 -2 2 0 0 -2 -4 0 0 10 2 0 0 -4zm-16 0l2 0c1.1,0 2,-0.9 2,-2l0 -2c0,-1.1 -0.9,-2 -2,-2l-4 0 0 10 2 0 0 -4zm0 -4l2 0 0 2 -2 0 0 -2z"/>
 </g>
</svg>
