<?xml version="1.0" encoding="UTF-8"?>
<!DOCTYPE svg PUBLIC "-//W3C//DTD SVG 1.1//EN" "http://www.w3.org/Graphics/SVG/1.1/DTD/svg11.dtd">
<!-- Creator: CorelDRAW 2020 (64-Bit) -->
<svg xmlns="http://www.w3.org/2000/svg" xml:space="preserve" width="24px" height="24px" version="1.1" style="shape-rendering:geometricPrecision; text-rendering:geometricPrecision; image-rendering:optimizeQuality; fill-rule:evenodd; clip-rule:evenodd"
viewBox="0 0 24 24"
 xmlns:xlink="http://www.w3.org/1999/xlink"
 xmlns:xodm="http://www.corel.com/coreldraw/odm/2003">
 <defs>
  <style type="text/css">
   <![CDATA[
    .fil0 {fill:none}
    .fil1 {fill:white;fill-rule:nonzero}
   ]]>
  </style>
 </defs>
 <g id="Слой_x0020_1">
  <metadata id="CorelCorpID_0Corel-Layer"/>
  <polygon class="fil0" points="0,0 24,0 24,24 0,24 "/>
  <path class="fil1" d="M15.75 14.25l-0.79 0 -0.28 -0.26c0.98,-1.14 1.58,-2.63 1.58,-4.24 0,-3.58 -2.91,-6.49 -6.51,-6.49 -3.58,0 -6.49,2.91 -6.49,6.49 0,3.6 2.91,6.51 6.49,6.51 1.61,0 3.1,-0.6 4.24,-1.58l0.26 0.28 0 0.79 5 4.99 1.49 -1.48 -4.99 -5.01zm-6 0c-2.49,0 -4.5,-2 -4.5,-4.5 0,-2.49 2.01,-4.5 4.5,-4.5 2.49,0 4.5,2.01 4.5,4.5 0,2.49 -2,4.5 -4.5,4.5z"/>
 </g>
</svg>
